<svg width="32" height="32" viewBox="0 0 32 32" fill="none" xmlns="http://www.w3.org/2000/svg">
  <path
    d="M5.29726 4.29708L7.73077 11.7867L0.241202 14.2202L1.05237 16.7167L8.54194 14.2832L10.9755 21.7727L3.48588 24.2063L4.29705 26.7028L11.7866 24.2693L14.2201 31.7588L16.7167 30.9477L14.2831 23.4581L21.7727 21.0246L24.2062 28.5142L26.7027 27.703L24.2692 20.2134L31.7588 17.7799L30.9476 15.2834L23.4581 17.7169L21.0246 10.2273L28.5141 7.79382L27.703 5.2973L20.2134 7.7308L17.7799 0.241234L15.2834 1.0524L17.7169 8.54197L10.2273 10.9755L7.79379 3.48591L5.29726 4.29708ZM11.0385 13.472L18.528 11.0385L20.9615 18.5281L13.472 20.9616L11.0385 13.472Z"
    fill="#686870"
  />
</svg>
